<svg width="158" height="24" viewBox="0 0 158 24" fill="none" xmlns="http://www.w3.org/2000/svg">
<path d="M156.538 5.52H152.885C152.885 4.05601 152.423 2.65197 151.6 1.61677C150.778 0.58157 149.663 0 148.5 0C147.337 0 146.222 0.58157 145.4 1.61677C144.577 2.65197 144.115 4.05601 144.115 5.52H140.462C140.074 5.52 139.702 5.71386 139.428 6.05892C139.154 6.40399 139 6.872 139 7.36V21.16C139 21.648 139.154 22.116 139.428 22.4611C139.702 22.8061 140.074 23 140.462 23H156.538C156.926 23 157.298 22.8061 157.572 22.4611C157.846 22.116 158 21.648 158 21.16V7.36C158 6.872 157.846 6.40399 157.572 6.05892C157.298 5.71386 156.926 5.52 156.538 5.52ZM148.5 1.84C149.275 1.84 150.019 2.22771 150.567 2.91785C151.115 3.60798 151.423 4.544 151.423 5.52H145.577C145.577 4.544 145.885 3.60798 146.433 2.91785C146.981 2.22771 147.725 1.84 148.5 1.84ZM156.538 21.16H140.462V7.36H144.115V9.2C144.115 9.444 144.192 9.67801 144.329 9.85054C144.466 10.0231 144.652 10.12 144.846 10.12C145.04 10.12 145.226 10.0231 145.363 9.85054C145.5 9.67801 145.577 9.444 145.577 9.2V7.36H151.423V9.2C151.423 9.444 151.5 9.67801 151.637 9.85054C151.774 10.0231 151.96 10.12 152.154 10.12C152.348 10.12 152.534 10.0231 152.671 9.85054C152.808 9.67801 152.885 9.444 152.885 9.2V7.36H156.538V21.16Z" fill="#00ABAD"/>
<path d="M100.672 1C98.292 1 96.2081 2.02351 94.9091 3.75355C93.6101 2.02351 91.5262 1 89.1461 1C87.2515 1.00214 85.4351 1.75571 84.0954 3.0954C82.7557 4.43509 82.0021 6.25149 82 8.1461C82 16.2143 93.9628 22.7449 94.4722 23.0146C94.6065 23.0868 94.7566 23.1246 94.9091 23.1246C95.0616 23.1246 95.2116 23.0868 95.3459 23.0146C95.8554 22.7449 107.818 16.2143 107.818 8.1461C107.816 6.25149 107.062 4.43509 105.723 3.0954C104.383 1.75571 102.567 1.00214 100.672 1ZM94.9091 21.1474C92.8044 19.921 83.8442 14.3344 83.8442 8.1461C83.846 6.7405 84.4052 5.39299 85.3991 4.39908C86.393 3.40517 87.7405 2.84598 89.1461 2.84415C91.3879 2.84415 93.2701 4.03824 94.0562 5.95617C94.1256 6.12528 94.2438 6.26993 94.3957 6.37173C94.5475 6.47353 94.7263 6.52788 94.9091 6.52788C95.0919 6.52788 95.2706 6.47353 95.4225 6.37173C95.5744 6.26993 95.6925 6.12528 95.762 5.95617C96.5481 4.03479 98.4303 2.84415 100.672 2.84415C102.078 2.84598 103.425 3.40517 104.419 4.39908C105.413 5.39299 105.972 6.7405 105.974 8.1461C105.974 14.3252 97.0114 19.9199 94.9091 21.1474Z" fill="#00ABAD"/>
<path d="M63.8611 21.672C62.1057 18.6372 59.4006 16.4611 56.2436 15.4295C57.8052 14.4999 59.0184 13.0834 59.697 11.3975C60.3756 9.71159 60.482 7.84955 60 6.09733C59.5179 4.3451 58.474 2.79956 57.0285 1.69806C55.583 0.596557 53.8159 0 51.9986 0C50.1812 0 48.4141 0.596557 46.9687 1.69806C45.5232 2.79956 44.4793 4.3451 43.9972 6.09733C43.5151 7.84955 43.6215 9.71159 44.3001 11.3975C44.9787 13.0834 46.192 14.4999 47.7536 15.4295C44.5966 16.4599 41.8915 18.636 40.136 21.672C40.0717 21.7769 40.029 21.8937 40.0105 22.0154C39.992 22.1372 39.998 22.2614 40.0283 22.3807C40.0586 22.5001 40.1125 22.6122 40.1868 22.7104C40.261 22.8086 40.3543 22.8909 40.4609 22.9525C40.5675 23.0141 40.6854 23.0537 40.8076 23.069C40.9297 23.0842 41.0537 23.0749 41.1723 23.0415C41.2908 23.0081 41.4014 22.9513 41.4976 22.8744C41.5938 22.7976 41.6736 22.7022 41.7324 22.594C43.9039 18.8412 47.742 16.6005 51.9986 16.6005C56.2551 16.6005 60.0933 18.8412 62.2648 22.594C62.3235 22.7022 62.4033 22.7976 62.4995 22.8744C62.5958 22.9513 62.7064 23.0081 62.8249 23.0415C62.9434 23.0749 63.0674 23.0842 63.1896 23.069C63.3118 23.0537 63.4296 23.0141 63.5363 22.9525C63.6429 22.8909 63.7361 22.8086 63.8104 22.7104C63.8847 22.6122 63.9386 22.5001 63.9688 22.3807C63.9991 22.2614 64.0052 22.1372 63.9867 22.0154C63.9682 21.8937 63.9255 21.7769 63.8611 21.672ZM45.544 8.30183C45.544 7.02524 45.9226 5.77732 46.6318 4.71588C47.3411 3.65444 48.3491 2.82714 49.5285 2.33861C50.7079 1.85008 52.0057 1.72226 53.2578 1.97131C54.5099 2.22036 55.6599 2.8351 56.5626 3.73778C57.4653 4.64046 58.08 5.79055 58.3291 7.04261C58.5781 8.29467 58.4503 9.59246 57.9618 10.7719C57.4733 11.9513 56.646 12.9594 55.5845 13.6686C54.5231 14.3778 53.2752 14.7564 51.9986 14.7564C50.2873 14.7545 48.6466 14.0739 47.4365 12.8639C46.2265 11.6538 45.5459 10.0131 45.544 8.30183Z" fill="#00ABAD"/>
<path d="M23.7298 22.425L17.9587 16.6551C19.6314 14.647 20.4655 12.0713 20.2875 9.46378C20.1095 6.85631 18.933 4.41786 17.0029 2.65567C15.0728 0.893482 12.5377 -0.0567572 9.92479 0.00262448C7.31193 0.0620061 4.82254 1.12644 2.97449 2.97449C1.12644 4.82254 0.0620061 7.31193 0.00262448 9.92479C-0.0567572 12.5377 0.893482 15.0728 2.65567 17.0029C4.41786 18.933 6.85631 20.1095 9.46378 20.2875C12.0713 20.4655 14.647 19.6314 16.6551 17.9587L22.425 23.7298C22.5107 23.8155 22.6124 23.8834 22.7243 23.9298C22.8363 23.9761 22.9563 24 23.0774 24C23.1986 24 23.3185 23.9761 23.4305 23.9298C23.5424 23.8834 23.6441 23.8155 23.7298 23.7298C23.8155 23.6441 23.8834 23.5424 23.9298 23.4305C23.9761 23.3185 24 23.1986 24 23.0774C24 22.9563 23.9761 22.8363 23.9298 22.7243C23.8834 22.6124 23.8155 22.5107 23.7298 22.425ZM1.86963 10.1683C1.86963 8.527 2.35634 6.92253 3.26821 5.55782C4.18009 4.1931 5.47616 3.12944 6.99255 2.50133C8.50894 1.87322 10.1775 1.70888 11.7873 2.02909C13.3971 2.34929 14.8758 3.13967 16.0364 4.30026C17.197 5.46086 17.9874 6.93954 18.3076 8.54933C18.6278 10.1591 18.4634 11.8277 17.8353 13.3441C17.2072 14.8605 16.1435 16.1566 14.7788 17.0684C13.4141 17.9803 11.8097 18.467 10.1683 18.467C7.96812 18.4646 5.85874 17.5895 4.30296 16.0337C2.74718 14.4779 1.87207 12.3685 1.86963 10.1683Z" fill="#00ABAD"/>
</svg>
